<svg width="141" height="14" viewBox="0 0 141 14" fill="none" xmlns="http://www.w3.org/2000/svg">
<path d="M2.26392 10H0.734619V1H2.26392V4.74414H6.04321V1H7.57251V10H6.04321V6.05371H2.26392V10ZM9.9104 3.66309C9.79907 2.81348 10.0334 2.12793 10.6135 1.60645C11.1995 1.08496 12.0344 0.824219 13.1184 0.824219C14.2024 0.824219 14.9758 1.09668 15.4387 1.6416C15.9075 2.18652 16.1418 2.99219 16.1418 4.05859V10H14.6125V9.85938C14.6125 9.78906 14.6272 9.66895 14.6565 9.49902C14.6858 9.32324 14.7268 9.10059 14.7795 8.83105C14.8323 8.56152 14.8704 8.35645 14.8938 8.21582H14.7356C14.3079 9.52246 13.4319 10.1758 12.1077 10.1758C11.6624 10.1758 11.2639 10.1055 10.9124 9.96484C10.5667 9.81836 10.2913 9.62207 10.0862 9.37598C9.8811 9.12988 9.72583 8.86035 9.62036 8.56738C9.51489 8.26855 9.46216 7.95508 9.46216 7.62695C9.46216 7.30469 9.49731 7.00879 9.56763 6.73926C9.6438 6.46387 9.74048 6.22656 9.85767 6.02734C9.97485 5.82227 10.1272 5.6377 10.3147 5.47363C10.5081 5.30371 10.6985 5.16309 10.886 5.05176C11.0735 4.94043 11.302 4.84082 11.5715 4.75293C11.8411 4.66504 12.0872 4.59766 12.3098 4.55078C12.5325 4.49805 12.7961 4.4541 13.1008 4.41895C13.4055 4.38379 13.6633 4.35742 13.8743 4.33984C14.0911 4.32227 14.3489 4.30762 14.6477 4.2959V3.95312C14.6477 2.6582 14.0823 2.01074 12.9514 2.01074C12.3713 2.01074 11.9407 2.16016 11.6594 2.45898C11.3782 2.75781 11.2815 3.15918 11.3694 3.66309H9.9104ZM12.6614 9.02441C13.1301 9.02441 13.5168 8.88379 13.8215 8.60254C14.1321 8.32129 14.3459 7.97559 14.4631 7.56543C14.5862 7.14941 14.6477 6.67773 14.6477 6.15039V5.24512C13.3 5.29199 12.345 5.50293 11.7825 5.87793C11.22 6.24707 10.9387 6.75098 10.9387 7.38965C10.9387 7.87598 11.0969 8.27148 11.4133 8.57617C11.7356 8.875 12.1516 9.02441 12.6614 9.02441ZM19.1389 1C19.2444 1.16406 19.3528 1.40723 19.4641 1.72949C19.5813 2.05176 19.7043 2.42676 19.8333 2.85449C19.968 3.27637 20.0793 3.60156 20.1672 3.83008C20.3079 4.20508 20.4749 4.47754 20.6682 4.64746C20.8616 4.81738 21.1252 4.90234 21.4592 4.90234H22.2502V1H23.7444V4.90234H24.4124C24.7932 4.90234 25.0891 4.82031 25.3 4.65625C25.511 4.49219 25.6897 4.2168 25.8362 3.83008C25.9006 3.66016 26.05 3.2002 26.2844 2.4502C26.5247 1.7002 26.7151 1.2168 26.8557 1H28.5696C28.3704 1.28125 28.1418 1.73828 27.884 2.37109C27.8137 2.55273 27.7288 2.78711 27.6292 3.07422C27.5295 3.35547 27.4446 3.58984 27.3743 3.77734C27.304 3.95898 27.2395 4.11426 27.1809 4.24316C27.0403 4.57129 26.8762 4.80859 26.6887 4.95508C26.5071 5.0957 26.2522 5.19824 25.9241 5.2627V5.5C26.2463 5.57031 26.5071 5.69922 26.7063 5.88672C26.9114 6.07422 27.0813 6.34668 27.2161 6.7041C27.2336 6.74512 27.342 7.0498 27.5413 7.61816C27.7405 8.18066 27.9163 8.63184 28.0686 8.97168C28.262 9.43457 28.4583 9.77734 28.6575 10H26.8557C26.7561 9.85352 26.6594 9.6543 26.5657 9.40234C26.4719 9.14453 26.3518 8.77539 26.2053 8.29492C26.0588 7.81445 25.9592 7.48926 25.9065 7.31934C25.7542 6.87402 25.5725 6.5459 25.3616 6.33496C25.1506 6.12402 24.8342 6.01855 24.4124 6.01855H23.7444V10H22.2502V6.01855H21.5823C21.1604 6.01855 20.844 6.12402 20.6331 6.33496C20.4221 6.5459 20.2405 6.87402 20.0881 7.31934C20.0354 7.48926 19.9358 7.81445 19.7893 8.29492C19.6428 8.77539 19.5227 9.14453 19.429 9.40234C19.3352 9.6543 19.2385 9.85352 19.1389 10H17.3196C17.5598 9.73633 17.7766 9.37012 17.97 8.90137C18.1106 8.57324 18.3801 7.84082 18.7786 6.7041C18.9133 6.34668 19.0803 6.07422 19.2795 5.88672C19.4846 5.69922 19.7483 5.57031 20.0706 5.5V5.2627C19.7424 5.19824 19.4846 5.0957 19.2971 4.95508C19.1155 4.80859 18.9543 4.57129 18.8137 4.24316C18.7375 4.0791 18.6086 3.74219 18.427 3.23242C18.2454 2.72266 18.0872 2.30957 17.9524 1.99316C17.7883 1.58301 17.6067 1.25195 17.4075 1H19.1389ZM38.7737 1L39.5471 10H38.0178L37.6399 5.0166C37.5461 3.76855 37.5051 2.85449 37.5168 2.27441H37.2971C37.1506 3.30566 36.9104 4.3457 36.5764 5.39453L35.3196 9.46387H33.4299L32.3137 5.29785C32.2434 5.0459 32.1584 4.74414 32.0588 4.39258C31.9651 4.04102 31.9006 3.80078 31.8655 3.67188C31.8362 3.54297 31.7981 3.38184 31.7512 3.18848C31.7043 2.99512 31.6692 2.83398 31.6458 2.70508C31.6282 2.57617 31.6106 2.43262 31.593 2.27441H31.3733C31.3967 2.85449 31.3557 3.78613 31.2502 5.06934L30.8547 10H29.4661L30.3098 1H32.5071L33.7112 5.42969C34.0627 6.70703 34.2854 7.69141 34.3792 8.38281H34.5637C34.634 7.63867 34.8625 6.6543 35.2493 5.42969L36.6292 1H38.7737ZM43.3352 10H41.5686V1H43.0627V4.65625C43.0627 6.54883 42.9543 7.87305 42.7375 8.62891L42.9221 8.68164C42.9866 8.53516 43.092 8.27734 43.2385 7.9082C43.3909 7.53906 43.5667 7.12891 43.7659 6.67773C43.9709 6.22656 44.2112 5.73145 44.4866 5.19238L46.6663 1H48.4329V10H46.9387V6.34375C46.9387 4.42773 47.0442 3.10352 47.2551 2.37109L47.0793 2.31836C47.0149 2.46484 46.9065 2.72266 46.7542 3.0918C46.6077 3.46094 46.4319 3.87109 46.2268 4.32227C46.0276 4.77344 45.7903 5.26855 45.5149 5.80762L43.3352 10ZM55.7893 10H54.26V1H55.7893V4.74414H59.5686V1H61.0979V10H59.5686V6.05371H55.7893V10ZM63.4358 3.66309C63.3245 2.81348 63.5588 2.12793 64.1389 1.60645C64.7249 1.08496 65.5598 0.824219 66.6438 0.824219C67.7278 0.824219 68.5012 1.09668 68.9641 1.6416C69.4329 2.18652 69.6672 2.99219 69.6672 4.05859V10H68.1379V9.85938C68.1379 9.78906 68.1526 9.66895 68.1819 9.49902C68.2112 9.32324 68.2522 9.10059 68.3049 8.83105C68.3577 8.56152 68.3958 8.35645 68.4192 8.21582H68.261C67.8333 9.52246 66.9573 10.1758 65.6331 10.1758C65.1877 10.1758 64.7893 10.1055 64.4377 9.96484C64.092 9.81836 63.8167 9.62207 63.6116 9.37598C63.4065 9.12988 63.2512 8.86035 63.1458 8.56738C63.0403 8.26855 62.9875 7.95508 62.9875 7.62695C62.9875 7.30469 63.0227 7.00879 63.093 6.73926C63.1692 6.46387 63.2659 6.22656 63.3831 6.02734C63.5002 5.82227 63.6526 5.6377 63.8401 5.47363C64.0334 5.30371 64.2239 5.16309 64.4114 5.05176C64.5989 4.94043 64.8274 4.84082 65.0969 4.75293C65.3665 4.66504 65.6125 4.59766 65.8352 4.55078C66.0579 4.49805 66.3215 4.4541 66.6262 4.41895C66.9309 4.38379 67.1887 4.35742 67.3997 4.33984C67.6165 4.32227 67.8743 4.30762 68.1731 4.2959V3.95312C68.1731 2.6582 67.6077 2.01074 66.4768 2.01074C65.8967 2.01074 65.4661 2.16016 65.1848 2.45898C64.9036 2.75781 64.8069 3.15918 64.8948 3.66309H63.4358ZM66.1868 9.02441C66.6555 9.02441 67.0422 8.88379 67.3469 8.60254C67.6575 8.32129 67.8713 7.97559 67.9885 7.56543C68.1116 7.14941 68.1731 6.67773 68.1731 6.15039V5.24512C66.8254 5.29199 65.8704 5.50293 65.3079 5.87793C64.7454 6.24707 64.4641 6.75098 64.4641 7.38965C64.4641 7.87598 64.6223 8.27148 64.9387 8.57617C65.261 8.875 65.677 9.02441 66.1868 9.02441ZM77.0237 10H75.4944V1H77.0237V4.86719H77.9114C78.2922 4.86719 78.5852 4.79102 78.7903 4.63867C79.0012 4.48047 79.1799 4.21094 79.3264 3.83008C79.3499 3.76562 79.4202 3.5752 79.5374 3.25879C79.6604 2.94238 79.7512 2.71387 79.8098 2.57324C79.8684 2.42676 79.9475 2.2334 80.0471 1.99316C80.1526 1.75293 80.2463 1.55371 80.3284 1.39551C80.4163 1.2373 80.4983 1.10547 80.5745 1H82.262C82.0159 1.24609 81.8049 1.54199 81.6292 1.8877C81.4592 2.22754 81.2864 2.62891 81.1106 3.0918C80.9407 3.55469 80.7971 3.90625 80.6799 4.14648C80.4983 4.50391 80.2903 4.77344 80.0559 4.95508C79.8274 5.13086 79.5198 5.25977 79.1331 5.3418V5.5C79.5842 5.57617 79.927 5.71387 80.1614 5.91309C80.3958 6.10645 80.592 6.4082 80.7502 6.81836C81.301 8.26562 81.843 9.32617 82.3762 10H80.5745C80.2405 9.57227 79.8508 8.67871 79.4055 7.31934C79.2532 6.87402 79.0715 6.5459 78.8606 6.33496C78.6497 6.12402 78.3333 6.01855 77.9114 6.01855H77.0237V10ZM83.4221 3.66309C83.3108 2.81348 83.5452 2.12793 84.1252 1.60645C84.7112 1.08496 85.5461 0.824219 86.6301 0.824219C87.7141 0.824219 88.4875 1.09668 88.9504 1.6416C89.4192 2.18652 89.6536 2.99219 89.6536 4.05859V10H88.1243V9.85938C88.1243 9.78906 88.1389 9.66895 88.1682 9.49902C88.1975 9.32324 88.2385 9.10059 88.2913 8.83105C88.344 8.56152 88.3821 8.35645 88.4055 8.21582H88.2473C87.8196 9.52246 86.9436 10.1758 85.6194 10.1758C85.1741 10.1758 84.7756 10.1055 84.4241 9.96484C84.0784 9.81836 83.803 9.62207 83.5979 9.37598C83.3928 9.12988 83.2375 8.86035 83.1321 8.56738C83.0266 8.26855 82.9739 7.95508 82.9739 7.62695C82.9739 7.30469 83.009 7.00879 83.0793 6.73926C83.1555 6.46387 83.2522 6.22656 83.3694 6.02734C83.4866 5.82227 83.6389 5.6377 83.8264 5.47363C84.0198 5.30371 84.2102 5.16309 84.3977 5.05176C84.5852 4.94043 84.8137 4.84082 85.0833 4.75293C85.3528 4.66504 85.5989 4.59766 85.8215 4.55078C86.0442 4.49805 86.3079 4.4541 86.6125 4.41895C86.9172 4.38379 87.175 4.35742 87.386 4.33984C87.6028 4.32227 87.8606 4.30762 88.1594 4.2959V3.95312C88.1594 2.6582 87.594 2.01074 86.4631 2.01074C85.8831 2.01074 85.4524 2.16016 85.1711 2.45898C84.8899 2.75781 84.7932 3.15918 84.8811 3.66309H83.4221ZM86.1731 9.02441C86.6418 9.02441 87.0286 8.88379 87.3333 8.60254C87.6438 8.32129 87.8577 7.97559 87.9749 7.56543C88.0979 7.14941 88.1594 6.67773 88.1594 6.15039V5.24512C86.8118 5.29199 85.8567 5.50293 85.2942 5.87793C84.7317 6.24707 84.4504 6.75098 84.4504 7.38965C84.4504 7.87598 84.6086 8.27148 84.925 8.57617C85.2473 8.875 85.6633 9.02441 86.1731 9.02441ZM96.1926 10.1758C94.8508 10.1758 93.9514 9.45215 93.4944 8.00488L93.3362 8.02246C93.512 9.10645 93.5999 9.74805 93.5999 9.94727V13.208H92.1057V1H93.5999V1.14062C93.5999 1.3457 93.512 1.99023 93.3362 3.07422L93.4944 3.0918C93.7288 2.34766 94.0833 1.78516 94.5579 1.4043C95.0383 1.01758 95.5891 0.824219 96.2102 0.824219C96.6614 0.824219 97.0862 0.923828 97.4846 1.12305C97.8831 1.31641 98.2346 1.60059 98.5393 1.97559C98.8499 2.35059 99.093 2.84277 99.2688 3.45215C99.4504 4.05566 99.5413 4.73828 99.5413 5.5C99.5413 6.2793 99.4417 6.97949 99.2424 7.60059C99.0491 8.21582 98.7883 8.70508 98.4602 9.06836C98.1379 9.43164 97.7834 9.70703 97.3967 9.89453C97.01 10.082 96.6086 10.1758 96.1926 10.1758ZM95.7444 8.86621C96.4475 8.86621 96.9836 8.58203 97.3528 8.01367C97.7219 7.44531 97.9065 6.61328 97.9065 5.51758C97.9065 4.43359 97.7219 3.60449 97.3528 3.03027C96.9836 2.45605 96.4475 2.16895 95.7444 2.16895C95.0354 2.16895 94.4963 2.45605 94.1272 3.03027C93.7639 3.60449 93.5823 4.43359 93.5823 5.51758C93.5823 6.61914 93.7639 7.4541 94.1272 8.02246C94.4963 8.58496 95.0354 8.86621 95.7444 8.86621ZM104.472 10H102.943V2.31836H100.253V1H107.153V2.31836H104.472V10ZM114.465 8.9541C113.797 9.76855 112.863 10.1758 111.661 10.1758C110.46 10.1758 109.523 9.76855 108.849 8.9541C108.181 8.13965 107.847 6.98828 107.847 5.5C107.847 4.01172 108.181 2.86035 108.849 2.0459C109.523 1.23145 110.46 0.824219 111.661 0.824219C112.863 0.824219 113.797 1.23145 114.465 2.0459C115.139 2.86035 115.476 4.01172 115.476 5.5C115.476 6.98828 115.139 8.13965 114.465 8.9541ZM111.661 8.97168C112.376 8.97168 112.93 8.67871 113.323 8.09277C113.715 7.50684 113.911 6.64258 113.911 5.5C113.911 4.375 113.715 3.51953 113.323 2.93359C112.93 2.3418 112.376 2.0459 111.661 2.0459C110.941 2.0459 110.384 2.33887 109.991 2.9248C109.605 3.51074 109.411 4.36914 109.411 5.5C109.411 6.64258 109.605 7.50684 109.991 8.09277C110.384 8.67871 110.941 8.97168 111.661 8.97168ZM121.619 1H123.149V10H121.619V6.43164C120.864 6.64844 120.166 6.75684 119.528 6.75684C119.135 6.75684 118.778 6.71582 118.455 6.63379C118.139 6.55176 117.84 6.41992 117.559 6.23828C117.283 6.05664 117.067 5.7959 116.908 5.45605C116.756 5.11621 116.68 4.71191 116.68 4.24316V1H118.209V4.07617C118.209 4.375 118.247 4.62109 118.323 4.81445C118.4 5.00781 118.52 5.15137 118.684 5.24512C118.854 5.33887 119.03 5.40332 119.211 5.43848C119.399 5.46777 119.636 5.48242 119.923 5.48242C120.591 5.48242 121.156 5.38574 121.619 5.19238V1ZM127.086 10H125.557V1H127.086V4.86719H127.974C128.355 4.86719 128.648 4.79102 128.853 4.63867C129.064 4.48047 129.242 4.21094 129.389 3.83008C129.412 3.76562 129.483 3.5752 129.6 3.25879C129.723 2.94238 129.814 2.71387 129.872 2.57324C129.931 2.42676 130.01 2.2334 130.11 1.99316C130.215 1.75293 130.309 1.55371 130.391 1.39551C130.479 1.2373 130.561 1.10547 130.637 1H132.324C132.078 1.24609 131.867 1.54199 131.692 1.8877C131.522 2.22754 131.349 2.62891 131.173 3.0918C131.003 3.55469 130.86 3.90625 130.742 4.14648C130.561 4.50391 130.353 4.77344 130.118 4.95508C129.89 5.13086 129.582 5.25977 129.196 5.3418V5.5C129.647 5.57617 129.99 5.71387 130.224 5.91309C130.458 6.10645 130.655 6.4082 130.813 6.81836C131.364 8.26562 131.906 9.32617 132.439 10H130.637C130.303 9.57227 129.913 8.67871 129.468 7.31934C129.316 6.87402 129.134 6.5459 128.923 6.33496C128.712 6.12402 128.396 6.01855 127.974 6.01855H127.086V10ZM136.596 8.64648C136.631 8.44141 136.666 8.24512 136.701 8.05762C136.742 7.86426 136.798 7.63867 136.868 7.38086C136.939 7.11719 136.994 6.90918 137.035 6.75684C137.076 6.59863 137.153 6.32031 137.264 5.92188C137.381 5.52344 137.469 5.22168 137.528 5.0166L138.679 1H140.085L136.288 13.208H134.777L135.656 10.4834L132.667 1H134.293L135.445 5.0166C135.966 6.82715 136.277 8.03711 136.376 8.64648H136.596Z" fill="#5395FA"/>
</svg>
